<svg xmlns="http://www.w3.org/2000/svg" data-name="Layer 1" viewBox="0 0 100 125" x="0px" y="0px"><title>All4</title><path d="M100,49.07a24.1,24.1,0,0,0-.17-2.78,9.23,9.23,0,0,0-.5-2,8.14,8.14,0,0,0-8.1-7.34H91.08a1.89,1.89,0,0,1-.41-0.67Q86.74,26,82.74,15.76c-2-5-5.47-7.51-10.8-7.52Q50,8.17,28.05,8.23a11.74,11.74,0,0,0-6,1.52A11.61,11.61,0,0,0,17.15,16c-2.48,6.43-5,12.85-7.43,19.3a4.77,4.77,0,0,1-.83,1.59H8.78A8.14,8.14,0,0,0,.67,44.31a12.76,12.76,0,0,0-.64,4C0,57,0,65.65,0,74.32c0,0.24,0,.49.06,0.81h8c0,0.41,0,.75,0,1.08,0,3-.05,6,0.1,9.06a6.41,6.41,0,0,0,4.06,5.85,7,7,0,0,0,7.15-.69,7,7,0,0,0,3-6c0-3.07,0-6.15,0-9.29H77.65c0,0.65,0,1.24,0,1.83,0,2.85-.06,5.71.17,8.54a7.05,7.05,0,0,0,14-.46c0.11-3,.06-5.93.08-8.89,0-.33,0-0.66,0-1.1H100V74Q100,61.52,100,49.07ZM18.65,31.58c1.64-4.37,3.25-8.76,4.93-13.12a4.71,4.71,0,0,1,4.89-3.3H71.58a4.66,4.66,0,0,1,4.87,3.31c2.27,6,4.48,12,6.72,17.94a3.5,3.5,0,0,1,.1.47H16.68C17.36,35.05,18,33.32,18.65,31.58Zm-3.21,28a7.62,7.62,0,0,1,.11-15.24A7.62,7.62,0,0,1,15.43,59.54Zm69.17,0A7.63,7.63,0,1,1,92,51.87,7.47,7.47,0,0,1,84.61,59.55Z"/></svg>